<?xml version="1.0" standalone="no"?>
<!DOCTYPE svg PUBLIC "-//W3C//DTD SVG 20010904//EN"
 "http://www.w3.org/TR/2001/REC-SVG-20010904/DTD/svg10.dtd">
<svg version="1.0" xmlns="http://www.w3.org/2000/svg"
 width="300.000000pt" height="300.000000pt" viewBox="0 0 300.000000 300.000000"
 preserveAspectRatio="xMidYMid meet">

<g transform="translate(0.000000,300.000000) scale(0.100000,-0.100000)"
fill="#000000" stroke="none">
<path d="M240 2986 c-19 -7 -48 -18 -63 -25 -42 -16 -121 -101 -148 -157 l-24
-49 0 -1255 0 -1255 24 -49 c30 -63 104 -137 167 -167 l49 -24 1255 0 1255 0
49 24 c63 30 137 104 167 167 l24 49 0 1255 0 1255 -24 49 c-30 63 -104 137
-167 167 l-49 24 -1240 2 c-1010 2 -1246 0 -1275 -11z m1269 -296 c9 -27 15
-30 50 -30 51 0 57 -11 25 -49 l-26 -31 21 -29 c31 -43 27 -52 -19 -45 -38 6
-40 5 -56 -30 -10 -20 -21 -36 -25 -36 -4 0 -13 16 -19 35 -11 33 -14 35 -56
35 -24 0 -44 2 -44 5 0 3 10 19 22 36 l23 30 -23 40 -23 39 45 0 c40 0 47 3
61 30 9 17 19 30 24 30 5 0 14 -13 20 -30z m-925 -15 c14 -32 19 -35 55 -35
47 0 50 -9 20 -50 l-22 -28 22 -30 c11 -17 21 -33 21 -36 0 -3 -20 -6 -44 -6
-39 0 -45 -3 -56 -30 -7 -16 -16 -30 -20 -30 -4 0 -13 14 -20 30 -11 27 -17
30 -56 30 -50 0 -53 6 -22 45 l22 28 -22 38 -23 39 23 0 c44 0 69 13 84 41 8
16 17 29 19 29 3 0 11 -16 19 -35z m1926 -35 c45 0 48 -7 20 -43 -11 -14 -20
-28 -20 -32 0 -4 9 -18 20 -32 29 -37 25 -46 -21 -41 -38 3 -42 1 -57 -29 -20
-42 -28 -41 -46 2 -14 32 -19 35 -55 35 -23 0 -41 3 -41 6 0 3 9 19 21 35 l21
29 -21 34 c-12 18 -21 36 -21 40 0 3 20 6 45 6 40 0 46 3 61 32 l17 32 19 -37
c17 -33 22 -37 58 -37z m-322 -258 c10 -7 12 -106 10 -463 l-3 -454 -127 -3
-128 -3 0 466 0 465 118 0 c64 0 123 -4 130 -8z m-1150 -464 l-3 -463 -125 0
-125 0 -3 450 c-1 248 0 456 3 463 3 9 39 12 130 12 l125 0 -2 -462z m292 400
c0 -43 -5 -67 -17 -80 -14 -16 -14 -18 -1 -18 14 0 16 -44 17 -380 l2 -380
-131 0 -130 0 0 460 0 460 130 0 130 0 0 -62z m290 6 c0 -54 -1 -56 -22 -50
-70 20 -158 17 -220 -9 -16 -6 -18 0 -18 54 l0 61 130 0 130 0 0 -56z m290
-404 l0 -460 -130 0 -130 0 0 285 c0 190 3 285 10 285 7 0 7 6 0 19 -5 11 -10
36 -10 56 0 31 3 36 17 31 16 -6 16 -6 0 12 -9 10 -17 31 -17 46 0 24 3 28 23
23 l22 -6 -22 16 c-20 13 -23 24 -23 84 l0 69 130 0 130 0 0 -460z m-475 310
c6 -9 -44 -40 -65 -40 -11 0 -14 33 -3 43 10 10 61 8 68 -3z m185 -20 c0 -23
-8 -25 -32 -6 -25 18 -22 26 7 26 18 0 25 -5 25 -20z m-170 -49 c0 -11 -70
-71 -82 -71 -16 0 -8 59 10 69 22 13 72 14 72 2z m154 3 c15 -6 23 -54 9 -54
-10 0 -53 42 -53 52 0 9 22 11 44 2z m-128 -230 c-6 -145 -18 -264 -32 -320
-6 -23 -4 -24 56 -24 54 0 61 2 56 18 -18 56 -27 137 -33 300 l-6 182 30 0
c17 0 40 -8 52 -17 21 -18 21 -22 19 -318 l-3 -300 -125 0 -125 0 -3 296 -2
297 32 21 c18 11 46 21 62 21 l29 0 -7 -156z m957 -144 c10 -27 16 -30 54 -30
49 0 54 -12 21 -48 l-23 -23 23 -40 23 -39 -44 0 c-40 0 -46 -3 -57 -30 -18
-44 -28 -45 -44 -5 -14 32 -19 35 -55 35 -46 0 -53 16 -21 45 11 10 20 22 20
27 0 6 -9 21 -20 35 -28 36 -25 43 20 43 35 0 43 4 58 30 21 38 31 38 45 0z
m-1843 -19 c10 -26 18 -30 56 -33 l45 -3 -25 -34 -26 -34 20 -32 c11 -18 20
-35 20 -39 0 -3 -20 -6 -44 -6 -39 0 -45 -3 -56 -30 -16 -38 -23 -38 -43 4
-14 30 -21 35 -58 38 l-41 3 21 27 c26 32 26 43 1 78 -24 33 -18 40 32 40 33
0 42 5 56 29 19 34 25 33 42 -8z m1610 -377 c0 -78 -76 -318 -140 -444 -98
-191 -255 -340 -410 -388 -76 -23 -254 -22 -335 2 -189 56 -331 195 -426 417
-47 109 -88 265 -96 370 l-6 79 707 0 706 0 0 -36z m110 -434 c11 -27 17 -30
56 -30 24 0 44 -3 44 -7 0 -3 -11 -21 -24 -38 l-25 -32 25 -37 25 -36 -45 0
c-40 0 -47 -3 -61 -30 -9 -16 -19 -30 -24 -30 -5 0 -14 14 -20 30 -9 27 -14
30 -55 30 -26 0 -46 3 -46 7 0 3 11 21 24 38 l25 32 -25 37 -25 36 38 0 c44 0
55 6 72 38 16 30 26 28 41 -8z m-1600 -10 c11 -27 17 -30 56 -30 24 0 44 -3
44 -6 0 -3 -12 -21 -26 -40 l-26 -34 26 -35 27 -35 -45 0 c-40 0 -47 -3 -61
-30 -9 -16 -19 -30 -24 -30 -5 0 -14 14 -21 30 -11 27 -17 30 -56 30 -51 0
-53 7 -19 48 l24 29 -25 34 -25 34 28 3 c55 5 70 12 81 37 15 33 27 32 42 -5z
m860 -570 c45 0 48 -7 20 -43 -25 -31 -25 -36 0 -67 28 -36 25 -40 -25 -40
-39 0 -46 -3 -60 -30 -9 -17 -18 -30 -21 -30 -3 0 -12 16 -20 35 -13 32 -18
35 -54 35 -22 0 -40 3 -40 6 0 3 9 19 21 35 l21 29 -21 34 c-12 18 -21 36 -21
40 0 3 19 6 43 6 37 0 44 4 60 33 l19 32 19 -37 c18 -34 23 -38 59 -38z"/>
<path d="M1315 1316 c-16 -7 -39 -23 -49 -35 -11 -11 -25 -21 -33 -21 -11 0
-13 -39 -11 -217 l3 -218 270 0 270 0 3 218 c2 176 0 217 -11 217 -7 0 -24 11
-37 25 -51 55 -144 57 -203 5 -32 -28 -33 -28 -46 -9 -14 23 -69 49 -103 49
-13 -1 -36 -7 -53 -14z m120 -37 l35 -31 0 -184 0 -184 -42 30 c-50 37 -87 38
-126 5 -17 -14 -33 -25 -36 -25 -3 0 -6 80 -6 178 0 172 1 179 23 199 58 53
101 56 152 12z m218 20 c12 -6 32 -21 45 -32 21 -20 22 -26 22 -204 l0 -183
-47 30 c-59 38 -80 38 -131 0 l-42 -30 0 185 0 185 42 30 c43 32 75 37 111 19z"/>
</g>
</svg>
